<svg xmlns="http://www.w3.org/2000/svg" xmlns:xlink="http://www.w3.org/1999/xlink" width="500" zoomAndPan="magnify" viewBox="18 20 340 340" height="500" preserveAspectRatio="xMidYMid meet" version="1.0"><defs><clipPath id="0b4e3493f2"><path d="M 23.824219 26.09375 L 351.175781 26.09375 L 351.175781 353.445312 L 23.824219 353.445312 Z M 23.824219 26.09375 " clip-rule="nonzero"/></clipPath><clipPath id="a5ab63b29f"><path d="M 187.5 26.09375 C 97.105469 26.09375 23.824219 99.375 23.824219 189.769531 C 23.824219 280.167969 97.105469 353.445312 187.5 353.445312 C 277.894531 353.445312 351.175781 280.167969 351.175781 189.769531 C 351.175781 99.375 277.894531 26.09375 187.5 26.09375 Z M 187.5 26.09375 " clip-rule="nonzero"/></clipPath><clipPath id="2d98074f21"><path d="M 0.824219 0.09375 L 328.175781 0.09375 L 328.175781 327.445312 L 0.824219 327.445312 Z M 0.824219 0.09375 " clip-rule="nonzero"/></clipPath><clipPath id="372f7db653"><path d="M 164.5 0.09375 C 74.105469 0.09375 0.824219 73.375 0.824219 163.769531 C 0.824219 254.167969 74.105469 327.445312 164.5 327.445312 C 254.894531 327.445312 328.175781 254.167969 328.175781 163.769531 C 328.175781 73.375 254.894531 0.09375 164.5 0.09375 Z M 164.5 0.09375 " clip-rule="nonzero"/></clipPath><clipPath id="87b3f69096"><rect x="0" width="329" y="0" height="328"/></clipPath><clipPath id="b60565cbfe"><path d="M 23.824219 26.09375 L 350.824219 26.09375 L 350.824219 353.09375 L 23.824219 353.09375 Z M 23.824219 26.09375 " clip-rule="nonzero"/></clipPath><clipPath id="426a03e491"><path d="M 187.496094 26.09375 C 97.101562 26.09375 23.824219 99.371094 23.824219 189.765625 C 23.824219 280.15625 97.101562 353.433594 187.496094 353.433594 C 277.886719 353.433594 351.164062 280.15625 351.164062 189.765625 C 351.164062 99.371094 277.886719 26.09375 187.496094 26.09375 Z M 187.496094 26.09375 " clip-rule="nonzero"/></clipPath></defs><rect x="-37.5" width="450" fill="#0B1121" y="-37.499999" height="449.999989" fill-opacity="1"/><rect x="-37.5" width="450" fill="#0B1121" y="-37.499999" height="449.999989" fill-opacity="1"/><g clip-path="url(#0b4e3493f2)"><g clip-path="url(#a5ab63b29f)"><g transform="matrix(1, 0, 0, 1, 23, 26)"><g clip-path="url(#87b3f69096)"><g clip-path="url(#2d98074f21)"><g clip-path="url(#372f7db653)"><path fill="#0B1121" d="M 0.824219 0.09375 L 328.175781 0.09375 L 328.175781 327.445312 L 0.824219 327.445312 Z M 0.824219 0.09375 " fill-opacity="1" fill-rule="nonzero"/></g></g></g></g></g></g><g clip-path="url(#b60565cbfe)"><g clip-path="url(#426a03e491)"><path stroke-linecap="butt" transform="matrix(0.75, 0, 0, 0.75, 23.82426, 26.09469)" fill="none" stroke-linejoin="miter" d="M 218.229126 -0.00125329 C 97.703076 -0.00125329 -0.0000550741 97.701878 -0.0000550741 218.227928 C -0.0000550741 338.748769 97.703076 436.4519 218.229126 436.4519 C 338.749967 436.4519 436.453099 338.748769 436.453099 218.227928 C 436.453099 97.701878 338.749967 -0.00125329 218.229126 -0.00125329 Z M 218.229126 -0.00125329 " stroke="#ffffff" stroke-width="2" stroke-opacity="1" stroke-miterlimit="4"/></g></g><path stroke-linecap="butt" transform="matrix(0, -0.75, 0.75, 0, 184.121476, 351.342692)" fill="none" stroke-linejoin="miter" d="M -0.0014105 4.49949 L 430.868409 4.49949 " stroke="#ffffff" stroke-width="9" stroke-opacity="1" stroke-miterlimit="4"/><path stroke-linecap="butt" transform="matrix(0.749991, 0.00364466, -0.00364466, 0.749991, 188.839533, 233.290869)" fill="none" stroke-linejoin="miter" d="M -0.000643432 2.997631 L 205.783056 2.997616 " stroke="#ffffff" stroke-width="6" stroke-opacity="1" stroke-miterlimit="4"/><path stroke-linecap="butt" transform="matrix(0.53033, -0.53033, 0.53033, 0.53033, 95.918297, 323.633828)" fill="none" stroke-linejoin="miter" d="M -0.00303571 3.000254 L 425.203868 3.000254 " stroke="#ffffff" stroke-width="6" stroke-opacity="1" stroke-miterlimit="4"/><path stroke-linecap="butt" transform="matrix(0.53033, 0.53033, -0.53033, 0.53033, 189.090988, 234.699844)" fill="none" stroke-linejoin="miter" d="M -0.00166818 2.998328 L 167.704183 3.002011 " stroke="#ffffff" stroke-width="6" stroke-opacity="1" stroke-miterlimit="4"/></svg>